<svg width="18" height="18" xmlns="http://www.w3.org/2000/svg"><g fill="none" fill-rule="evenodd"><path d="M0 0h18v18H0z"/><path d="M9 16.021c-3.866 0-7-3.143-7-7.021s3.134-7.021 7-7.021S16 5.122 16 9s-3.134 7.021-7 7.021zm3.917-6.519c.021-.164.037-.328.037-.502s-.016-.338-.037-.502l1.112-.846a.255.255 0 0 0 .064-.328L13.038 5.55c-.063-.113-.206-.154-.321-.113l-1.313.513a3.876 3.876 0 0 0-.89-.502l-.2-1.359a.255.255 0 0 0-.26-.216H7.948a.255.255 0 0 0-.258.216l-.2 1.359a4.078 4.078 0 0 0-.891.502l-1.312-.513a.26.26 0 0 0-.322.113L3.91 7.324a.248.248 0 0 0 .063.328l1.112.846A3.925 3.925 0 0 0 5.048 9c0 .169.016.338.037.502l-1.112.846a.254.254 0 0 0-.063.328l1.054 1.774a.269.269 0 0 0 .322.113l1.312-.513c.274.205.569.374.89.502l.2 1.359a.255.255 0 0 0 .26.216h2.107a.255.255 0 0 0 .258-.216l.2-1.359c.322-.128.617-.302.891-.502l1.313.513a.26.26 0 0 0 .321-.113l1.055-1.774a.255.255 0 0 0-.064-.328l-1.112-.846zM9 10.965A1.967 1.967 0 0 1 7.035 9c0-1.084.881-1.965 1.965-1.965s1.965.881 1.965 1.965A1.967 1.967 0 0 1 9 10.965z" fill="#BDC1C5"/><path fill="#BDC1C5" d="M3.766 5.079l.707-.707L13.6 13.5l-.707.708z"/><path fill="#FFF" d="M4.422 4.422l.707-.707 9.13 9.128-.708.707z"/></g></svg>