<svg width="18" height="18" xmlns="http://www.w3.org/2000/svg"><g fill="none" fill-rule="evenodd"><path d="M12.184 9.293c-.86 0-1.641-.39-2.15-.976L9.8 9.489l.82.78V13.2h-.78v-2.344l-.821-.781-.39 1.719-2.736-.547.157-.782 1.914.391.625-3.164-.703.273v1.328h-.782V7.457l2.032-.86c.117 0 .196-.039.313-.039.273 0 .508.157.664.391l.39.625c.313.547.939.938 1.68.938v.781zM10.034 4.8c.43 0 .782.352.782.782 0 .43-.352.781-.781.781a.783.783 0 0 1-.782-.781c0-.43.352-.782.782-.782zM9 2a7 7 0 1 0 .002 14.002A7 7 0 0 0 9 2z" fill="#9C27B0"/><path d="M0 0h18v18H0z"/></g></svg>